<mxfile host="app.diagrams.net" agent="Mozilla/5.0 (Windows NT 10.0; Win64; x64) AppleWebKit/537.36 (KHTML, like Gecko) Chrome/131.0.0.0 Safari/537.36 Edg/131.0.0.0" version="26.0.6">
  <diagram name="Seite-1" id="tJl8rDLTMUH18qqi89Bk">
    <mxGraphModel dx="1613" dy="2058" grid="1" gridSize="10" guides="1" tooltips="1" connect="1" arrows="1" fold="1" page="1" pageScale="1" pageWidth="827" pageHeight="1169" math="0" shadow="0">
      <root>
        <mxCell id="0" />
        <mxCell id="1" parent="0" />
        <mxCell id="wUnahYM-DWI-1juJjVwb-30" style="rounded=0;orthogonalLoop=1;jettySize=auto;html=1;entryX=0.5;entryY=1;entryDx=0;entryDy=0;" edge="1" parent="1" source="wUnahYM-DWI-1juJjVwb-1" target="wUnahYM-DWI-1juJjVwb-2">
          <mxGeometry relative="1" as="geometry" />
        </mxCell>
        <mxCell id="wUnahYM-DWI-1juJjVwb-31" style="edgeStyle=none;shape=connector;rounded=0;orthogonalLoop=1;jettySize=auto;html=1;entryX=0.5;entryY=1;entryDx=0;entryDy=0;strokeColor=default;align=center;verticalAlign=middle;fontFamily=Helvetica;fontSize=11;fontColor=default;labelBackgroundColor=default;endArrow=classic;" edge="1" parent="1" source="wUnahYM-DWI-1juJjVwb-1" target="wUnahYM-DWI-1juJjVwb-3">
          <mxGeometry relative="1" as="geometry" />
        </mxCell>
        <mxCell id="wUnahYM-DWI-1juJjVwb-32" style="edgeStyle=none;shape=connector;rounded=0;orthogonalLoop=1;jettySize=auto;html=1;entryX=0.5;entryY=1;entryDx=0;entryDy=0;strokeColor=default;align=center;verticalAlign=middle;fontFamily=Helvetica;fontSize=11;fontColor=default;labelBackgroundColor=default;endArrow=classic;" edge="1" parent="1" source="wUnahYM-DWI-1juJjVwb-1" target="wUnahYM-DWI-1juJjVwb-4">
          <mxGeometry relative="1" as="geometry" />
        </mxCell>
        <mxCell id="wUnahYM-DWI-1juJjVwb-33" style="edgeStyle=none;shape=connector;rounded=0;orthogonalLoop=1;jettySize=auto;html=1;entryX=1;entryY=0.5;entryDx=0;entryDy=0;strokeColor=default;align=center;verticalAlign=middle;fontFamily=Helvetica;fontSize=11;fontColor=default;labelBackgroundColor=default;endArrow=classic;" edge="1" parent="1" source="wUnahYM-DWI-1juJjVwb-1" target="wUnahYM-DWI-1juJjVwb-5">
          <mxGeometry relative="1" as="geometry" />
        </mxCell>
        <mxCell id="wUnahYM-DWI-1juJjVwb-34" style="edgeStyle=none;shape=connector;rounded=0;orthogonalLoop=1;jettySize=auto;html=1;entryX=1;entryY=0.5;entryDx=0;entryDy=0;strokeColor=default;align=center;verticalAlign=middle;fontFamily=Helvetica;fontSize=11;fontColor=default;labelBackgroundColor=default;endArrow=classic;" edge="1" parent="1" source="wUnahYM-DWI-1juJjVwb-1" target="wUnahYM-DWI-1juJjVwb-6">
          <mxGeometry relative="1" as="geometry" />
        </mxCell>
        <mxCell id="wUnahYM-DWI-1juJjVwb-35" style="edgeStyle=none;shape=connector;rounded=0;orthogonalLoop=1;jettySize=auto;html=1;entryX=1;entryY=0.5;entryDx=0;entryDy=0;strokeColor=default;align=center;verticalAlign=middle;fontFamily=Helvetica;fontSize=11;fontColor=default;labelBackgroundColor=default;endArrow=classic;" edge="1" parent="1" source="wUnahYM-DWI-1juJjVwb-1" target="wUnahYM-DWI-1juJjVwb-7">
          <mxGeometry relative="1" as="geometry" />
        </mxCell>
        <mxCell id="wUnahYM-DWI-1juJjVwb-36" style="edgeStyle=none;shape=connector;rounded=0;orthogonalLoop=1;jettySize=auto;html=1;entryX=1;entryY=0.5;entryDx=0;entryDy=0;strokeColor=default;align=center;verticalAlign=middle;fontFamily=Helvetica;fontSize=11;fontColor=default;labelBackgroundColor=default;endArrow=classic;" edge="1" parent="1" source="wUnahYM-DWI-1juJjVwb-1" target="wUnahYM-DWI-1juJjVwb-8">
          <mxGeometry relative="1" as="geometry" />
        </mxCell>
        <mxCell id="wUnahYM-DWI-1juJjVwb-37" style="edgeStyle=none;shape=connector;rounded=0;orthogonalLoop=1;jettySize=auto;html=1;entryX=1;entryY=0.5;entryDx=0;entryDy=0;strokeColor=default;align=center;verticalAlign=middle;fontFamily=Helvetica;fontSize=11;fontColor=default;labelBackgroundColor=default;endArrow=classic;" edge="1" parent="1" source="wUnahYM-DWI-1juJjVwb-1" target="wUnahYM-DWI-1juJjVwb-9">
          <mxGeometry relative="1" as="geometry" />
        </mxCell>
        <mxCell id="wUnahYM-DWI-1juJjVwb-38" style="edgeStyle=none;shape=connector;rounded=0;orthogonalLoop=1;jettySize=auto;html=1;entryX=1;entryY=0.5;entryDx=0;entryDy=0;strokeColor=default;align=center;verticalAlign=middle;fontFamily=Helvetica;fontSize=11;fontColor=default;labelBackgroundColor=default;endArrow=classic;" edge="1" parent="1" source="wUnahYM-DWI-1juJjVwb-1" target="wUnahYM-DWI-1juJjVwb-10">
          <mxGeometry relative="1" as="geometry" />
        </mxCell>
        <mxCell id="wUnahYM-DWI-1juJjVwb-39" style="edgeStyle=none;shape=connector;rounded=0;orthogonalLoop=1;jettySize=auto;html=1;entryX=1;entryY=0.5;entryDx=0;entryDy=0;strokeColor=default;align=center;verticalAlign=middle;fontFamily=Helvetica;fontSize=11;fontColor=default;labelBackgroundColor=default;endArrow=classic;" edge="1" parent="1" source="wUnahYM-DWI-1juJjVwb-1" target="wUnahYM-DWI-1juJjVwb-11">
          <mxGeometry relative="1" as="geometry" />
        </mxCell>
        <mxCell id="wUnahYM-DWI-1juJjVwb-40" style="edgeStyle=none;shape=connector;rounded=0;orthogonalLoop=1;jettySize=auto;html=1;entryX=1;entryY=0.5;entryDx=0;entryDy=0;strokeColor=default;align=center;verticalAlign=middle;fontFamily=Helvetica;fontSize=11;fontColor=default;labelBackgroundColor=default;endArrow=classic;" edge="1" parent="1" source="wUnahYM-DWI-1juJjVwb-1" target="wUnahYM-DWI-1juJjVwb-12">
          <mxGeometry relative="1" as="geometry" />
        </mxCell>
        <mxCell id="wUnahYM-DWI-1juJjVwb-41" style="edgeStyle=none;shape=connector;rounded=0;orthogonalLoop=1;jettySize=auto;html=1;entryX=1;entryY=0.5;entryDx=0;entryDy=0;strokeColor=default;align=center;verticalAlign=middle;fontFamily=Helvetica;fontSize=11;fontColor=default;labelBackgroundColor=default;endArrow=classic;" edge="1" parent="1" source="wUnahYM-DWI-1juJjVwb-1" target="wUnahYM-DWI-1juJjVwb-13">
          <mxGeometry relative="1" as="geometry" />
        </mxCell>
        <mxCell id="wUnahYM-DWI-1juJjVwb-42" style="edgeStyle=none;shape=connector;rounded=0;orthogonalLoop=1;jettySize=auto;html=1;entryX=1;entryY=0;entryDx=0;entryDy=0;strokeColor=default;align=center;verticalAlign=middle;fontFamily=Helvetica;fontSize=11;fontColor=default;labelBackgroundColor=default;endArrow=classic;" edge="1" parent="1" source="wUnahYM-DWI-1juJjVwb-1" target="wUnahYM-DWI-1juJjVwb-14">
          <mxGeometry relative="1" as="geometry" />
        </mxCell>
        <mxCell id="wUnahYM-DWI-1juJjVwb-43" style="edgeStyle=none;shape=connector;rounded=0;orthogonalLoop=1;jettySize=auto;html=1;entryX=0.5;entryY=0;entryDx=0;entryDy=0;strokeColor=default;align=center;verticalAlign=middle;fontFamily=Helvetica;fontSize=11;fontColor=default;labelBackgroundColor=default;endArrow=classic;" edge="1" parent="1" source="wUnahYM-DWI-1juJjVwb-1" target="wUnahYM-DWI-1juJjVwb-15">
          <mxGeometry relative="1" as="geometry" />
        </mxCell>
        <mxCell id="wUnahYM-DWI-1juJjVwb-44" style="edgeStyle=none;shape=connector;rounded=0;orthogonalLoop=1;jettySize=auto;html=1;entryX=0.5;entryY=0;entryDx=0;entryDy=0;strokeColor=default;align=center;verticalAlign=middle;fontFamily=Helvetica;fontSize=11;fontColor=default;labelBackgroundColor=default;endArrow=classic;" edge="1" parent="1" source="wUnahYM-DWI-1juJjVwb-1" target="wUnahYM-DWI-1juJjVwb-16">
          <mxGeometry relative="1" as="geometry" />
        </mxCell>
        <mxCell id="wUnahYM-DWI-1juJjVwb-1" value="User" style="rounded=0;whiteSpace=wrap;html=1;" vertex="1" parent="1">
          <mxGeometry x="40" y="320" width="120" height="60" as="geometry" />
        </mxCell>
        <mxCell id="wUnahYM-DWI-1juJjVwb-2" value="ID" style="ellipse;whiteSpace=wrap;html=1;" vertex="1" parent="1">
          <mxGeometry x="50" y="40" width="80" height="50" as="geometry" />
        </mxCell>
        <mxCell id="wUnahYM-DWI-1juJjVwb-3" value="Nachname" style="ellipse;whiteSpace=wrap;html=1;" vertex="1" parent="1">
          <mxGeometry x="-30" y="60" width="80" height="50" as="geometry" />
        </mxCell>
        <mxCell id="wUnahYM-DWI-1juJjVwb-4" value="Vorname" style="ellipse;whiteSpace=wrap;html=1;" vertex="1" parent="1">
          <mxGeometry x="-70" y="110" width="80" height="50" as="geometry" />
        </mxCell>
        <mxCell id="wUnahYM-DWI-1juJjVwb-5" value="StraÃŸe" style="ellipse;whiteSpace=wrap;html=1;" vertex="1" parent="1">
          <mxGeometry x="-120" y="160" width="80" height="50" as="geometry" />
        </mxCell>
        <mxCell id="wUnahYM-DWI-1juJjVwb-6" value="Hausnummer" style="ellipse;whiteSpace=wrap;html=1;" vertex="1" parent="1">
          <mxGeometry x="-130" y="220" width="80" height="50" as="geometry" />
        </mxCell>
        <mxCell id="wUnahYM-DWI-1juJjVwb-7" value="PLZ" style="ellipse;whiteSpace=wrap;html=1;" vertex="1" parent="1">
          <mxGeometry x="-140" y="280" width="80" height="50" as="geometry" />
        </mxCell>
        <mxCell id="wUnahYM-DWI-1juJjVwb-8" value="Ort" style="ellipse;whiteSpace=wrap;html=1;" vertex="1" parent="1">
          <mxGeometry x="-140" y="340" width="80" height="50" as="geometry" />
        </mxCell>
        <mxCell id="wUnahYM-DWI-1juJjVwb-9" value="Telefon-nummer" style="ellipse;whiteSpace=wrap;html=1;" vertex="1" parent="1">
          <mxGeometry x="-150" y="400" width="80" height="50" as="geometry" />
        </mxCell>
        <mxCell id="wUnahYM-DWI-1juJjVwb-10" value="Hobbies" style="ellipse;whiteSpace=wrap;html=1;" vertex="1" parent="1">
          <mxGeometry x="-150" y="460" width="80" height="50" as="geometry" />
        </mxCell>
        <mxCell id="wUnahYM-DWI-1juJjVwb-11" value="E-Mail-Adresse" style="ellipse;whiteSpace=wrap;html=1;" vertex="1" parent="1">
          <mxGeometry x="-130" y="520" width="80" height="50" as="geometry" />
        </mxCell>
        <mxCell id="wUnahYM-DWI-1juJjVwb-12" value="Geschlecht" style="ellipse;whiteSpace=wrap;html=1;" vertex="1" parent="1">
          <mxGeometry x="-80" y="570" width="80" height="50" as="geometry" />
        </mxCell>
        <mxCell id="wUnahYM-DWI-1juJjVwb-13" value="interessiert_an" style="ellipse;whiteSpace=wrap;html=1;" vertex="1" parent="1">
          <mxGeometry x="-50" y="630" width="90" height="50" as="geometry" />
        </mxCell>
        <mxCell id="wUnahYM-DWI-1juJjVwb-14" value="Geburtsdatum" style="ellipse;whiteSpace=wrap;html=1;" vertex="1" parent="1">
          <mxGeometry x="-10" y="680" width="90" height="50" as="geometry" />
        </mxCell>
        <mxCell id="wUnahYM-DWI-1juJjVwb-15" value="createdAt" style="ellipse;whiteSpace=wrap;html=1;" vertex="1" parent="1">
          <mxGeometry x="70" y="720" width="90" height="50" as="geometry" />
        </mxCell>
        <mxCell id="wUnahYM-DWI-1juJjVwb-16" value="updatedAt" style="ellipse;whiteSpace=wrap;html=1;" vertex="1" parent="1">
          <mxGeometry x="170" y="730" width="90" height="50" as="geometry" />
        </mxCell>
        <mxCell id="wUnahYM-DWI-1juJjVwb-45" style="edgeStyle=none;shape=connector;rounded=0;orthogonalLoop=1;jettySize=auto;html=1;entryX=0.5;entryY=1;entryDx=0;entryDy=0;strokeColor=default;align=center;verticalAlign=middle;fontFamily=Helvetica;fontSize=11;fontColor=default;labelBackgroundColor=default;endArrow=classic;" edge="1" parent="1" source="wUnahYM-DWI-1juJjVwb-17" target="wUnahYM-DWI-1juJjVwb-19">
          <mxGeometry relative="1" as="geometry" />
        </mxCell>
        <mxCell id="wUnahYM-DWI-1juJjVwb-46" style="edgeStyle=none;shape=connector;rounded=0;orthogonalLoop=1;jettySize=auto;html=1;entryX=0.5;entryY=1;entryDx=0;entryDy=0;strokeColor=default;align=center;verticalAlign=middle;fontFamily=Helvetica;fontSize=11;fontColor=default;labelBackgroundColor=default;endArrow=classic;" edge="1" parent="1" source="wUnahYM-DWI-1juJjVwb-17" target="wUnahYM-DWI-1juJjVwb-18">
          <mxGeometry relative="1" as="geometry" />
        </mxCell>
        <mxCell id="wUnahYM-DWI-1juJjVwb-17" value="Friendships" style="rounded=0;whiteSpace=wrap;html=1;" vertex="1" parent="1">
          <mxGeometry x="350" y="75" width="120" height="60" as="geometry" />
        </mxCell>
        <mxCell id="wUnahYM-DWI-1juJjVwb-18" value="user_id" style="ellipse;whiteSpace=wrap;html=1;" vertex="1" parent="1">
          <mxGeometry x="310" y="-5" width="80" height="50" as="geometry" />
        </mxCell>
        <mxCell id="wUnahYM-DWI-1juJjVwb-19" value="friend_id" style="ellipse;whiteSpace=wrap;html=1;" vertex="1" parent="1">
          <mxGeometry x="420" y="-5" width="80" height="50" as="geometry" />
        </mxCell>
        <mxCell id="wUnahYM-DWI-1juJjVwb-47" style="edgeStyle=none;shape=connector;rounded=0;orthogonalLoop=1;jettySize=auto;html=1;entryX=0.5;entryY=0;entryDx=0;entryDy=0;strokeColor=default;align=center;verticalAlign=middle;fontFamily=Helvetica;fontSize=11;fontColor=default;labelBackgroundColor=default;endArrow=classic;" edge="1" parent="1" source="wUnahYM-DWI-1juJjVwb-20" target="wUnahYM-DWI-1juJjVwb-21">
          <mxGeometry relative="1" as="geometry" />
        </mxCell>
        <mxCell id="wUnahYM-DWI-1juJjVwb-48" style="edgeStyle=none;shape=connector;rounded=0;orthogonalLoop=1;jettySize=auto;html=1;entryX=0;entryY=0.5;entryDx=0;entryDy=0;strokeColor=default;align=center;verticalAlign=middle;fontFamily=Helvetica;fontSize=11;fontColor=default;labelBackgroundColor=default;endArrow=classic;" edge="1" parent="1" source="wUnahYM-DWI-1juJjVwb-20" target="wUnahYM-DWI-1juJjVwb-22">
          <mxGeometry relative="1" as="geometry" />
        </mxCell>
        <mxCell id="wUnahYM-DWI-1juJjVwb-49" style="edgeStyle=none;shape=connector;rounded=0;orthogonalLoop=1;jettySize=auto;html=1;entryX=0;entryY=0.5;entryDx=0;entryDy=0;strokeColor=default;align=center;verticalAlign=middle;fontFamily=Helvetica;fontSize=11;fontColor=default;labelBackgroundColor=default;endArrow=classic;" edge="1" parent="1" source="wUnahYM-DWI-1juJjVwb-20" target="wUnahYM-DWI-1juJjVwb-23">
          <mxGeometry relative="1" as="geometry" />
        </mxCell>
        <mxCell id="wUnahYM-DWI-1juJjVwb-20" value="Likes" style="rounded=0;whiteSpace=wrap;html=1;" vertex="1" parent="1">
          <mxGeometry x="580" y="220" width="120" height="60" as="geometry" />
        </mxCell>
        <mxCell id="wUnahYM-DWI-1juJjVwb-21" value="liked_email" style="ellipse;whiteSpace=wrap;html=1;" vertex="1" parent="1">
          <mxGeometry x="700" y="310" width="80" height="50" as="geometry" />
        </mxCell>
        <mxCell id="wUnahYM-DWI-1juJjVwb-22" value="Status" style="ellipse;whiteSpace=wrap;html=1;" vertex="1" parent="1">
          <mxGeometry x="747" y="230" width="80" height="50" as="geometry" />
        </mxCell>
        <mxCell id="wUnahYM-DWI-1juJjVwb-23" value="Timestamp" style="ellipse;whiteSpace=wrap;html=1;" vertex="1" parent="1">
          <mxGeometry x="700" y="150" width="80" height="50" as="geometry" />
        </mxCell>
        <mxCell id="wUnahYM-DWI-1juJjVwb-50" style="edgeStyle=none;shape=connector;rounded=0;orthogonalLoop=1;jettySize=auto;html=1;entryX=0.5;entryY=1;entryDx=0;entryDy=0;strokeColor=default;align=center;verticalAlign=middle;fontFamily=Helvetica;fontSize=11;fontColor=default;labelBackgroundColor=default;endArrow=classic;" edge="1" parent="1" source="wUnahYM-DWI-1juJjVwb-24" target="wUnahYM-DWI-1juJjVwb-25">
          <mxGeometry relative="1" as="geometry" />
        </mxCell>
        <mxCell id="wUnahYM-DWI-1juJjVwb-51" style="edgeStyle=none;shape=connector;rounded=0;orthogonalLoop=1;jettySize=auto;html=1;entryX=0;entryY=0.5;entryDx=0;entryDy=0;strokeColor=default;align=center;verticalAlign=middle;fontFamily=Helvetica;fontSize=11;fontColor=default;labelBackgroundColor=default;endArrow=classic;" edge="1" parent="1" source="wUnahYM-DWI-1juJjVwb-24" target="wUnahYM-DWI-1juJjVwb-26">
          <mxGeometry relative="1" as="geometry" />
        </mxCell>
        <mxCell id="wUnahYM-DWI-1juJjVwb-52" style="edgeStyle=none;shape=connector;rounded=0;orthogonalLoop=1;jettySize=auto;html=1;entryX=0;entryY=0.5;entryDx=0;entryDy=0;strokeColor=default;align=center;verticalAlign=middle;fontFamily=Helvetica;fontSize=11;fontColor=default;labelBackgroundColor=default;endArrow=classic;" edge="1" parent="1" source="wUnahYM-DWI-1juJjVwb-24" target="wUnahYM-DWI-1juJjVwb-27">
          <mxGeometry relative="1" as="geometry" />
        </mxCell>
        <mxCell id="wUnahYM-DWI-1juJjVwb-53" style="edgeStyle=none;shape=connector;rounded=0;orthogonalLoop=1;jettySize=auto;html=1;entryX=0.5;entryY=0;entryDx=0;entryDy=0;strokeColor=default;align=center;verticalAlign=middle;fontFamily=Helvetica;fontSize=11;fontColor=default;labelBackgroundColor=default;endArrow=classic;" edge="1" parent="1" source="wUnahYM-DWI-1juJjVwb-24" target="wUnahYM-DWI-1juJjVwb-28">
          <mxGeometry relative="1" as="geometry" />
        </mxCell>
        <mxCell id="wUnahYM-DWI-1juJjVwb-54" style="edgeStyle=none;shape=connector;rounded=0;orthogonalLoop=1;jettySize=auto;html=1;entryX=0.5;entryY=0;entryDx=0;entryDy=0;strokeColor=default;align=center;verticalAlign=middle;fontFamily=Helvetica;fontSize=11;fontColor=default;labelBackgroundColor=default;endArrow=classic;" edge="1" parent="1" source="wUnahYM-DWI-1juJjVwb-24" target="wUnahYM-DWI-1juJjVwb-29">
          <mxGeometry relative="1" as="geometry" />
        </mxCell>
        <mxCell id="wUnahYM-DWI-1juJjVwb-24" value="Messages" style="rounded=0;whiteSpace=wrap;html=1;" vertex="1" parent="1">
          <mxGeometry x="530" y="590" width="120" height="60" as="geometry" />
        </mxCell>
        <mxCell id="wUnahYM-DWI-1juJjVwb-25" value="Conversation_ID" style="ellipse;whiteSpace=wrap;html=1;" vertex="1" parent="1">
          <mxGeometry x="540" y="485" width="100" height="50" as="geometry" />
        </mxCell>
        <mxCell id="wUnahYM-DWI-1juJjVwb-26" value="Sender_ID" style="ellipse;whiteSpace=wrap;html=1;" vertex="1" parent="1">
          <mxGeometry x="660" y="510" width="100" height="50" as="geometry" />
        </mxCell>
        <mxCell id="wUnahYM-DWI-1juJjVwb-27" value="Receiver_Email" style="ellipse;whiteSpace=wrap;html=1;" vertex="1" parent="1">
          <mxGeometry x="710" y="620" width="100" height="50" as="geometry" />
        </mxCell>
        <mxCell id="wUnahYM-DWI-1juJjVwb-28" value="Message" style="ellipse;whiteSpace=wrap;html=1;" vertex="1" parent="1">
          <mxGeometry x="620" y="700" width="100" height="50" as="geometry" />
        </mxCell>
        <mxCell id="wUnahYM-DWI-1juJjVwb-29" value="Timestamp" style="ellipse;whiteSpace=wrap;html=1;" vertex="1" parent="1">
          <mxGeometry x="510" y="720" width="100" height="50" as="geometry" />
        </mxCell>
        <mxCell id="wUnahYM-DWI-1juJjVwb-56" style="edgeStyle=none;shape=connector;rounded=0;orthogonalLoop=1;jettySize=auto;html=1;entryX=1;entryY=1;entryDx=0;entryDy=0;strokeColor=default;align=center;verticalAlign=middle;fontFamily=Helvetica;fontSize=11;fontColor=default;labelBackgroundColor=default;endArrow=classic;" edge="1" parent="1" source="wUnahYM-DWI-1juJjVwb-55" target="wUnahYM-DWI-1juJjVwb-1">
          <mxGeometry relative="1" as="geometry" />
        </mxCell>
        <mxCell id="wUnahYM-DWI-1juJjVwb-59" value="1" style="edgeLabel;html=1;align=center;verticalAlign=middle;resizable=0;points=[];fontFamily=Helvetica;fontSize=11;fontColor=default;labelBackgroundColor=default;" vertex="1" connectable="0" parent="wUnahYM-DWI-1juJjVwb-56">
          <mxGeometry x="0.7823" y="1" relative="1" as="geometry">
            <mxPoint as="offset" />
          </mxGeometry>
        </mxCell>
        <mxCell id="wUnahYM-DWI-1juJjVwb-57" style="edgeStyle=none;shape=connector;rounded=0;orthogonalLoop=1;jettySize=auto;html=1;entryX=0;entryY=0.5;entryDx=0;entryDy=0;strokeColor=default;align=center;verticalAlign=middle;fontFamily=Helvetica;fontSize=11;fontColor=default;labelBackgroundColor=default;endArrow=classic;" edge="1" parent="1" source="wUnahYM-DWI-1juJjVwb-55" target="wUnahYM-DWI-1juJjVwb-24">
          <mxGeometry relative="1" as="geometry" />
        </mxCell>
        <mxCell id="wUnahYM-DWI-1juJjVwb-58" value="n" style="edgeLabel;html=1;align=center;verticalAlign=middle;resizable=0;points=[];fontFamily=Helvetica;fontSize=11;fontColor=default;labelBackgroundColor=default;" vertex="1" connectable="0" parent="wUnahYM-DWI-1juJjVwb-57">
          <mxGeometry x="0.7465" y="-3" relative="1" as="geometry">
            <mxPoint as="offset" />
          </mxGeometry>
        </mxCell>
        <mxCell id="wUnahYM-DWI-1juJjVwb-55" value="schreibt" style="shape=rhombus;perimeter=rhombusPerimeter;whiteSpace=wrap;html=1;align=center;fontFamily=Helvetica;fontSize=11;fontColor=default;labelBackgroundColor=default;" vertex="1" parent="1">
          <mxGeometry x="300" y="475" width="120" height="60" as="geometry" />
        </mxCell>
        <mxCell id="wUnahYM-DWI-1juJjVwb-61" style="edgeStyle=none;shape=connector;rounded=0;orthogonalLoop=1;jettySize=auto;html=1;entryX=1;entryY=0;entryDx=0;entryDy=0;strokeColor=default;align=center;verticalAlign=middle;fontFamily=Helvetica;fontSize=11;fontColor=default;labelBackgroundColor=default;endArrow=classic;" edge="1" parent="1" source="wUnahYM-DWI-1juJjVwb-60" target="wUnahYM-DWI-1juJjVwb-1">
          <mxGeometry relative="1" as="geometry" />
        </mxCell>
        <mxCell id="wUnahYM-DWI-1juJjVwb-64" value="1" style="edgeLabel;html=1;align=center;verticalAlign=middle;resizable=0;points=[];fontFamily=Helvetica;fontSize=11;fontColor=default;labelBackgroundColor=default;" vertex="1" connectable="0" parent="wUnahYM-DWI-1juJjVwb-61">
          <mxGeometry x="0.4513" y="-2" relative="1" as="geometry">
            <mxPoint as="offset" />
          </mxGeometry>
        </mxCell>
        <mxCell id="wUnahYM-DWI-1juJjVwb-62" style="edgeStyle=none;shape=connector;rounded=0;orthogonalLoop=1;jettySize=auto;html=1;entryX=0;entryY=1;entryDx=0;entryDy=0;strokeColor=default;align=center;verticalAlign=middle;fontFamily=Helvetica;fontSize=11;fontColor=default;labelBackgroundColor=default;endArrow=classic;" edge="1" parent="1" source="wUnahYM-DWI-1juJjVwb-60" target="wUnahYM-DWI-1juJjVwb-17">
          <mxGeometry relative="1" as="geometry" />
        </mxCell>
        <mxCell id="wUnahYM-DWI-1juJjVwb-63" value="n" style="edgeLabel;html=1;align=center;verticalAlign=middle;resizable=0;points=[];fontFamily=Helvetica;fontSize=11;fontColor=default;labelBackgroundColor=default;" vertex="1" connectable="0" parent="wUnahYM-DWI-1juJjVwb-62">
          <mxGeometry x="0.5209" y="2" relative="1" as="geometry">
            <mxPoint as="offset" />
          </mxGeometry>
        </mxCell>
        <mxCell id="wUnahYM-DWI-1juJjVwb-60" value="erstellt" style="shape=rhombus;perimeter=rhombusPerimeter;whiteSpace=wrap;html=1;align=center;fontFamily=Helvetica;fontSize=11;fontColor=default;labelBackgroundColor=default;" vertex="1" parent="1">
          <mxGeometry x="200" y="190" width="120" height="60" as="geometry" />
        </mxCell>
        <mxCell id="wUnahYM-DWI-1juJjVwb-66" style="edgeStyle=none;shape=connector;rounded=0;orthogonalLoop=1;jettySize=auto;html=1;entryX=0;entryY=0.5;entryDx=0;entryDy=0;strokeColor=default;align=center;verticalAlign=middle;fontFamily=Helvetica;fontSize=11;fontColor=default;labelBackgroundColor=default;endArrow=classic;" edge="1" parent="1" source="wUnahYM-DWI-1juJjVwb-65" target="wUnahYM-DWI-1juJjVwb-20">
          <mxGeometry relative="1" as="geometry" />
        </mxCell>
        <mxCell id="wUnahYM-DWI-1juJjVwb-68" value="n" style="edgeLabel;html=1;align=center;verticalAlign=middle;resizable=0;points=[];fontFamily=Helvetica;fontSize=11;fontColor=default;labelBackgroundColor=default;" vertex="1" connectable="0" parent="wUnahYM-DWI-1juJjVwb-66">
          <mxGeometry x="0.5893" relative="1" as="geometry">
            <mxPoint as="offset" />
          </mxGeometry>
        </mxCell>
        <mxCell id="wUnahYM-DWI-1juJjVwb-67" style="edgeStyle=none;shape=connector;rounded=0;orthogonalLoop=1;jettySize=auto;html=1;entryX=1;entryY=0.5;entryDx=0;entryDy=0;strokeColor=default;align=center;verticalAlign=middle;fontFamily=Helvetica;fontSize=11;fontColor=default;labelBackgroundColor=default;endArrow=classic;" edge="1" parent="1" source="wUnahYM-DWI-1juJjVwb-65" target="wUnahYM-DWI-1juJjVwb-1">
          <mxGeometry relative="1" as="geometry" />
        </mxCell>
        <mxCell id="wUnahYM-DWI-1juJjVwb-69" value="1" style="edgeLabel;html=1;align=center;verticalAlign=middle;resizable=0;points=[];fontFamily=Helvetica;fontSize=11;fontColor=default;labelBackgroundColor=default;" vertex="1" connectable="0" parent="wUnahYM-DWI-1juJjVwb-67">
          <mxGeometry x="0.7415" y="-2" relative="1" as="geometry">
            <mxPoint as="offset" />
          </mxGeometry>
        </mxCell>
        <mxCell id="wUnahYM-DWI-1juJjVwb-65" value="vergibt" style="shape=rhombus;perimeter=rhombusPerimeter;whiteSpace=wrap;html=1;align=center;fontFamily=Helvetica;fontSize=11;fontColor=default;labelBackgroundColor=default;" vertex="1" parent="1">
          <mxGeometry x="330" y="270" width="120" height="60" as="geometry" />
        </mxCell>
      </root>
    </mxGraphModel>
  </diagram>
</mxfile>
